<?xml version="1.0" encoding="utf-8"?>
<!-- Generator: Adobe Illustrator 23.0.3, SVG Export Plug-In . SVG Version: 6.00 Build 0)  -->
<svg version="1.1" id="Layer_1" xmlns="http://www.w3.org/2000/svg" xmlns:xlink="http://www.w3.org/1999/xlink" x="0px" y="0px"
	 viewBox="0 0 700 210" style="enable-background:new 0 0 700 210;" xml:space="preserve">
<g>
	<g>
		<path d="M150,6.6L86.5,145.7H71.7L5.1,6.6h37.3L78.7,85l34.4-78.5H150z"/>
		<path d="M161,20.9c0-4.5,1.6-8.3,4.7-11.4c3.1-3.1,6.9-4.7,11.3-4.7c4.5,0,8.3,1.6,11.4,4.7s4.7,6.9,4.7,11.4
			c0,4.4-1.6,8.2-4.7,11.4c-3.1,3.2-6.9,4.8-11.4,4.8c-4.4,0-8.2-1.6-11.3-4.8C162.6,29.1,161,25.3,161,20.9z M191.8,51.1v92.8
			h-29.2V51.1H191.8z"/>
		<path d="M246.3,6.6v137.3h-29.2V6.6H246.3z"/>
		<path d="M365.8,121v16.2c-9.7,5.6-18.8,8.5-27.3,8.5c-9.2,0-14.6-3.5-16.3-10.4c-10.2,6.9-20.3,10.4-30.6,10.4
			c-7.2,0-13.3-2.3-18.4-6.8c-5-4.6-7.6-9.9-7.6-15.9c0-8.1,2.6-14.6,7.8-19.5c5.2-5,21-11.3,47.3-19.1c0.7-10.4-4.7-15.5-16.1-15.5
			c-12.4,0-23.8,5.2-34.2,15.5V60.5c12.2-7.5,25.6-11.3,40.2-11.3c26.2,0,39.3,9.4,39.3,28.2v42.3c0,4.3,1.6,6.5,4.8,6.5
			C357.3,126.2,360.9,124.5,365.8,121z M320.8,121.4V98.9c-9.8,3.4-16.5,6.5-20.1,9.2c-3.6,2.7-5.5,6.2-5.5,10.4c0,2.7,0.9,5,2.8,7
			c1.8,1.9,4.1,2.9,6.7,2.9C310.2,128.4,315.6,126,320.8,121.4z"/>
		<path d="M407.9,51.1v26.5h0.4c8.5-19,18.3-28.5,29.6-28.5c5.4,0,11.8,2.8,19.4,8.5l-8.1,25.8c-7.2-4.6-13-6.9-17.3-6.9
			c-6.7,0-12.4,4.2-17.1,12.5c-4.6,8.4-6.9,13.2-6.9,14.6v40.2h-29.2V51.1H407.9z"/>
		<path d="M467.2,20.9c0-4.5,1.6-8.3,4.7-11.4c3.1-3.1,6.9-4.7,11.3-4.7c4.5,0,8.3,1.6,11.4,4.7s4.7,6.9,4.7,11.4
			c0,4.4-1.6,8.2-4.7,11.4c-3.1,3.2-6.9,4.8-11.4,4.8c-4.4,0-8.2-1.6-11.3-4.8C468.7,29.1,467.2,25.3,467.2,20.9z M497.9,51.1v92.8
			h-29.2V51.1H497.9z"/>
		<path d="M589.3,51.1v20h-33.8v38.2c0,4.6,1.3,8.2,3.8,10.9c2.5,2.7,6,4,10.5,4c6,0,12.5-1.8,19.6-5.4v21.1
			c-9.3,3.9-18.3,5.8-27,5.8c-11.4,0-20.2-2.9-26.5-8.8s-9.4-14.5-9.4-25.9V71.1h-13.3v-5.7l38.8-43.4h3.6v29.2H589.3z"/>
		<path d="M694.8,51.1l-62.2,155.3h-31.1l27.2-67.5l-36.3-87.8h31.1l19.6,54.1l21-54.1H694.8z"/>
	</g>
	<g>
		<path d="M151.9,153.2h3.1c0.4,0,0.6,0.1,0.9,0.3c0.2,0.2,0.4,0.4,0.5,0.7l18.2,44.3c0.5,1.2,0.9,2.4,1.2,3.7
			c0.3-1.4,0.6-2.6,1.1-3.7l18.2-44.3c0.1-0.3,0.3-0.5,0.5-0.7c0.2-0.2,0.5-0.3,0.9-0.3h3l-22,53.4h-3.4L151.9,153.2z"/>
		<path d="M210,206.6h-2.7v-37.4h2.7V206.6z"/>
		<path d="M240.8,173.8c-0.2,0.3-0.4,0.4-0.7,0.4c-0.2,0-0.5-0.2-0.9-0.5c-0.4-0.3-0.9-0.7-1.5-1.1c-0.6-0.4-1.4-0.8-2.3-1.1
			c-0.9-0.3-2.1-0.5-3.4-0.5c-1.4,0-2.6,0.2-3.6,0.6s-1.9,0.9-2.6,1.6c-0.7,0.7-1.2,1.4-1.6,2.3c-0.4,0.9-0.5,1.8-0.5,2.8
			c0,1.3,0.3,2.3,0.8,3.1c0.5,0.8,1.2,1.5,2.1,2.1s1.9,1.1,3,1.5c1.1,0.4,2.3,0.8,3.5,1.2c1.2,0.4,2.3,0.8,3.5,1.3
			c1.1,0.5,2.1,1.1,3,1.8c0.9,0.7,1.6,1.6,2.1,2.6c0.5,1,0.8,2.3,0.8,3.8c0,1.6-0.3,3-0.8,4.4s-1.3,2.6-2.3,3.6
			c-1,1-2.3,1.8-3.8,2.4s-3.2,0.9-5.1,0.9c-2.5,0-4.6-0.4-6.4-1.3c-1.8-0.9-3.3-2.1-4.7-3.6l0.7-1.2c0.2-0.3,0.5-0.4,0.7-0.4
			c0.2,0,0.4,0.1,0.6,0.3c0.2,0.2,0.5,0.5,0.9,0.8c0.4,0.3,0.8,0.6,1.3,1s1.1,0.7,1.7,1c0.7,0.3,1.4,0.6,2.2,0.8
			c0.8,0.2,1.8,0.3,2.9,0.3c1.5,0,2.8-0.2,4-0.7c1.2-0.4,2.1-1.1,2.9-1.8c0.8-0.8,1.4-1.7,1.8-2.8c0.4-1.1,0.6-2.2,0.6-3.4
			c0-1.3-0.3-2.4-0.8-3.3s-1.2-1.6-2.1-2.1c-0.9-0.6-1.9-1.1-3-1.4c-1.1-0.4-2.3-0.8-3.5-1.1s-2.3-0.8-3.5-1.2c-1.1-0.5-2.1-1-3-1.8
			c-0.9-0.7-1.6-1.6-2.1-2.7c-0.5-1.1-0.8-2.4-0.8-4c0-1.3,0.2-2.5,0.7-3.6c0.5-1.2,1.2-2.2,2.1-3.1c0.9-0.9,2.1-1.6,3.4-2.1
			c1.3-0.5,2.9-0.8,4.6-0.8c1.9,0,3.7,0.3,5.2,0.9c1.5,0.6,2.9,1.6,4.2,2.8L240.8,173.8z"/>
		<path d="M254.6,206.6h-2.7v-37.4h2.7V206.6z"/>
		<path d="M300.6,187.9c0,2.9-0.4,5.5-1.3,7.9c-0.9,2.4-2.1,4.4-3.6,6s-3.4,3-5.6,3.9s-4.6,1.4-7.3,1.4c-2.6,0-5-0.5-7.2-1.4
			c-2.2-0.9-4.1-2.2-5.6-3.9c-1.6-1.7-2.8-3.7-3.7-6c-0.9-2.4-1.3-5-1.3-7.9c0-2.9,0.4-5.5,1.3-7.8c0.9-2.4,2.1-4.4,3.7-6
			c1.6-1.7,3.4-3,5.6-3.9c2.2-0.9,4.6-1.4,7.2-1.4c2.7,0,5.1,0.5,7.3,1.4c2.2,0.9,4.1,2.2,5.6,3.9c1.6,1.7,2.8,3.7,3.6,6
			C300.2,182.4,300.6,185,300.6,187.9z M297.8,187.9c0-2.6-0.4-4.9-1.1-7s-1.7-3.8-3.1-5.3c-1.3-1.4-2.9-2.5-4.7-3.3
			c-1.8-0.8-3.9-1.1-6.2-1.1c-2.2,0-4.2,0.4-6.1,1.1c-1.8,0.8-3.4,1.9-4.8,3.3c-1.3,1.4-2.4,3.2-3.1,5.3c-0.7,2.1-1.1,4.4-1.1,7
			c0,2.6,0.4,5,1.1,7c0.7,2.1,1.8,3.8,3.1,5.3c1.3,1.4,2.9,2.5,4.8,3.3c1.8,0.8,3.9,1.1,6.1,1.1c2.3,0,4.3-0.4,6.2-1.1
			c1.8-0.8,3.4-1.9,4.7-3.3c1.3-1.4,2.3-3.2,3.1-5.3S297.8,190.5,297.8,187.9z"/>
		<path d="M311.9,169.3c0.1,0.1,0.3,0.2,0.4,0.4l24.2,32.4c-0.1-0.5-0.1-1-0.1-1.5v-31.4h2.4v37.4h-1.3c-0.4,0-0.7-0.2-1-0.5
			l-24.3-32.4c0.1,0.5,0.1,1,0.1,1.5v31.5H310v-37.4h1.3C311.6,169.2,311.8,169.3,311.9,169.3z"/>
		<path d="M407.1,197.6c0.3,0,0.5,0.1,0.6,0.3l1.5,1.6c-1.1,1.2-2.3,2.2-3.6,3.2s-2.7,1.7-4.3,2.4c-1.5,0.7-3.2,1.2-5.1,1.5
			s-3.9,0.5-6.1,0.5c-3.7,0-7.1-0.6-10.2-1.9s-5.7-3.1-7.9-5.5c-2.2-2.4-3.9-5.3-5.2-8.6c-1.2-3.4-1.8-7.1-1.8-11.2
			c0-4,0.6-7.7,1.9-11.1c1.3-3.3,3.1-6.2,5.4-8.6c2.3-2.4,5.1-4.3,8.3-5.6c3.2-1.3,6.7-2,10.6-2c1.9,0,3.7,0.1,5.3,0.4
			c1.6,0.3,3.1,0.7,4.5,1.2s2.7,1.2,3.9,2c1.2,0.8,2.4,1.7,3.6,2.8l-1.2,1.7c-0.2,0.3-0.5,0.5-0.9,0.5c-0.2,0-0.5-0.1-0.9-0.4
			c-0.4-0.3-0.8-0.6-1.3-1c-0.5-0.4-1.2-0.8-2-1.3c-0.8-0.5-1.7-0.9-2.7-1.3c-1.1-0.4-2.3-0.7-3.7-1c-1.4-0.3-3-0.4-4.7-0.4
			c-3.2,0-6.2,0.6-8.9,1.7c-2.7,1.1-5.1,2.7-7,4.8c-2,2.1-3.5,4.6-4.6,7.5c-1.1,3-1.6,6.3-1.6,9.9c0,3.8,0.5,7.1,1.6,10.1
			c1.1,3,2.6,5.5,4.5,7.5s4.2,3.6,6.8,4.7c2.6,1.1,5.4,1.6,8.5,1.6c1.9,0,3.6-0.1,5.1-0.4c1.5-0.3,2.9-0.6,4.1-1.1
			c1.3-0.5,2.4-1.1,3.5-1.8c1.1-0.7,2.2-1.6,3.2-2.6c0.1-0.1,0.2-0.2,0.4-0.2C406.8,197.7,407,197.6,407.1,197.6z"/>
		<path d="M422.6,204.3h17.7v2.3h-20.4v-37.4h2.7V204.3z"/>
		<path d="M475.6,206.6h-2.1c-0.2,0-0.4-0.1-0.6-0.2c-0.2-0.1-0.3-0.3-0.4-0.5l-4.4-10.9h-18.4l-4.4,10.9c-0.1,0.2-0.2,0.4-0.4,0.5
			c-0.2,0.1-0.4,0.2-0.6,0.2h-2.1l15.3-37.4h2.7L475.6,206.6z M450.6,193h16.7l-7.6-18.9c-0.1-0.3-0.2-0.6-0.4-1
			c-0.1-0.4-0.2-0.8-0.4-1.2c-0.1,0.4-0.2,0.8-0.4,1.2c-0.1,0.4-0.2,0.7-0.4,1L450.6,193z"/>
		<path d="M485.6,189.7v16.9h-2.7v-37.4h9.5c4.3,0,7.5,0.8,9.7,2.5c2.1,1.7,3.2,4.1,3.2,7.3c0,1.4-0.2,2.7-0.7,3.9
			c-0.5,1.2-1.2,2.2-2.1,3.1c-0.9,0.9-2,1.6-3.3,2.2c-1.3,0.6-2.8,0.9-4.4,1.1c0.4,0.3,0.8,0.6,1.1,1.1l12.9,16.2h-2.4
			c-0.3,0-0.5-0.1-0.7-0.2c-0.2-0.1-0.4-0.3-0.6-0.5l-12-15.2c-0.3-0.4-0.6-0.7-1-0.8c-0.3-0.2-0.9-0.2-1.6-0.2H485.6z M485.6,187.7
			h6.5c1.7,0,3.1-0.2,4.5-0.6c1.3-0.4,2.4-1,3.3-1.7c0.9-0.7,1.6-1.6,2.1-2.7c0.5-1,0.7-2.2,0.7-3.5c0-2.7-0.9-4.6-2.6-5.9
			c-1.7-1.3-4.3-1.9-7.6-1.9h-6.8V187.7z"/>
		<path d="M519.7,206.6H517v-37.4h2.7V206.6z"/>
		<path d="M556.8,169.2v2.3h-13.1v35.1H541v-35.1h-13.2v-2.3H556.8z"/>
		<path d="M575.5,191.2v15.4h-2.7v-15.4l-13.8-22h2.4c0.2,0,0.4,0.1,0.6,0.2c0.1,0.1,0.3,0.3,0.4,0.5l10.7,17.2
			c0.2,0.4,0.5,0.8,0.6,1.2c0.2,0.4,0.3,0.8,0.5,1.1c0.1-0.4,0.3-0.8,0.5-1.1c0.2-0.4,0.4-0.8,0.6-1.2l10.7-17.2
			c0.1-0.2,0.2-0.4,0.4-0.5c0.2-0.1,0.4-0.2,0.6-0.2h2.4L575.5,191.2z"/>
	</g>
</g>
</svg>
